<?xml version="1.0" encoding="UTF-8"?>
<svg id="canvas" xmlns="http://www.w3.org/2000/svg" width="1820" height="1520" viewBox="0 0 1820 1520"><defs><style type="text/css"><![CDATA[@import url("https://fonts.googleapis.com/css2?family=Architects+Daughter&family=Caveat:wght@400;700&display=swap");.hand { font-family: "Architects Daughter", "Caveat", "Patrick Hand", "Comic Sans MS", cursive; }.normal { font-family: -apple-system, "Helvetica Neue", Arial, sans-serif; }.mono { font-family: ui-monospace, "Cascadia Code", Menlo, monospace; }]]></style></defs><rect x="0" y="0" width="1820" height="1520" fill="#ffffff"/><g><path d="M61.5536004960537 128.6495450079441 L542.5870784699916 127.66482496857643 L541.966058152914 367.99309931397437 L61.696984857320786 371.55604773163793" stroke="none" stroke-width="0" fill="#dbeafe"/><path d="M59.071363338074626 130.9337402002011 C156.22108071671767 128.05355411215703, 255.62088524471375 128.55119588876644, 540.2267863386602 129.68360946557624 M60.19744242556575 130.1897884842896 C231.2199818011351 131.2327870705685, 403.91348653806307 130.94274616390746, 540.4740157891798 130.4007674996581 M540.1169717883284 128.5575592046683 C542.2795911119396 208.58240155921217, 540.0843228512115 280.81228453315305, 540.2989789330974 370.55472274451245 M540.914831966517 128.84770534217412 C536.8735113724729 196.56707016286427, 538.695072800783 261.3878241878208, 539.033519684846 371.2744416036577 M539.284299550641 370.3335609917241 C363.1116613757982 365.9838639990673, 188.02283551827705 365.2066013961601, 60.90464685969824 370.1384204935494 M540.5207522963639 370.64177777990386 C432.8302073566447 367.6778613338368, 325.7243217255497 367.44166977416063, 59.96179736218742 369.9175901487269 M57.592303294242036 367.7022939573363 C58.32059662798933 303.74033494714894, 60.272745253809106 241.11686218838983, 58.33159132365449 129.88319692620874 M59.80294467628606 369.5848178043838 C64.36637780597682 308.2430209996868, 63.65729810253654 246.02158045199047, 60.35537368686364 130.2215873949079" stroke="#1e1e1e" stroke-width="2.5" fill="none"/></g><g><path d="M78.61804669611156 198.9320680011064 L517.8544814061373 200.07195565588773 L521.3714653562754 268.80421277172866 L77.35470411293208 270.12223534472287" stroke="none" stroke-width="0" fill="#fde68a"/><path d="M80.65082577672622 200.85564915171577 C168.6247460674401 200.228603948821, 257.1574754682911 199.75143389007062, 521.0235767375488 200.40476861743244 M80.59819637301769 199.68710913662426 C201.77678341652253 199.2628971265819, 322.2340844909268 198.20420943736977, 520.0240108785227 199.96358437085559 M518.0857228625566 201.5282984685153 C517.6035334313735 227.35626695845275, 518.9981318558082 247.5891621299088, 517.9004141319543 269.6905635666102 M519.2995225464925 200.05284174028785 C519.7127075804025 216.07357074283064, 518.5779717875272 234.62692246418447, 519.0854335760698 270.564150463976 M519.1876542047582 269.50696908749825 C410.72223376368703 271.656338231076, 300.1122373313369 271.8345490637609, 79.56838039086009 270.4726856072081 M519.3797187617089 269.53077285236 C398.1822113486772 265.7320839483209, 277.7060179395185 265.94694521896974, 80.1306608685026 269.4625578888305 M82.06600204594433 267.5847597789019 C80.7885250576213 243.51959340106697, 79.86826676208526 222.31011054068804, 81.19784190542995 201.02661700956523 M79.19922727700323 269.89988822285085 C79.15404700097442 244.97087005004286, 77.9651978200376 219.45788524057716, 79.67318876739591 199.69499096814542" stroke="#1e1e1e" stroke-width="2" fill="none"/></g><g><path d="M79.32509939670562 279.87297837734224 L519.3392526865006 281.86643006801603 L519.245813202858 359.84911515712736 L81.83774969577789 358.01556489467623" stroke="none" stroke-width="0" fill="#ffffff"/><path d="M79.47301768716149 280.08562097244317 C168.24907921666437 277.6133433739837, 256.81236025578636 278.2365464494064, 520.8186787568163 280.42689188152366 M79.94308202768352 280.39376711120923 C255.4530204196734 276.9767183758892, 431.3448053814631 277.7863399106266, 520.0885678120334 280.0528358615152 M520.1227586507797 277.682831788063 C519.5973909635544 303.61571085453033, 521.6121073026658 331.25896589756013, 519.9614389181137 360.2180162668228 M519.1007126927376 280.1023911356926 C519.773749279499 302.0469042658806, 521.1206574673653 321.5696278452873, 519.0129216313362 360.3400662302971 M518.8794120844058 360.0253351502477 C425.07316075088374 362.92442922956593, 327.6318697051058 362.4607222683675, 79.47962740923639 359.38061204946496 M520.4706747047205 359.87450476656966 C365.3268409059756 363.46707459721034, 212.03226156296793 363.3095842088521, 79.71188307320125 359.39441729758846 M81.67442338466644 362.4912012338638 C77.97149108409882 332.05004427433016, 81.54074843883514 305.28957579135897, 81.62672669887543 278.5244814157486 M80.90409175157546 360.412940299511 C79.78366084718705 336.95410298109056, 80.20603290224075 313.1758198618889, 80.3176922917366 280.5246144175529" stroke="#1e1e1e" stroke-width="1.5" fill="none"/></g><g><path d="M581.6380014657974 132.3687555074692 L1759.797101044655 127.86452653408051 L1756.9603266000747 368.3253122091293 L579.5456468820572 370.72064378261564" stroke="none" stroke-width="0" fill="#fef3c7"/><path d="M580.5924085140228 130.9513803958893 C819.256212336421 128.16954320373534, 1057.9300845181942 128.5439545196533, 1759.5124704647064 130.54180184364319 M580.357094464302 129.5468863248825 C967.2817814046144 127.53168516254425, 1353.8293247902393 127.80429639911652, 1759.5823393678666 130.3836262845993 M1758.4640719454885 130.42906628001572 C1760.419898084116 212.96318422009827, 1761.476372463393 291.2033758900148, 1759.7748410130073 370.2751852711153 M1760.107914770978 128.6831642720256 C1759.8753899862284 190.31357596057848, 1759.0299192416217 250.10330775647995, 1760.1413928848137 368.7659588450916 M1759.9944415950774 370.4902359867096 C1403.220667412877 378.3789113624573, 1048.4588365900518 377.9168187721252, 580.7087027645111 370.5111457157135 M1759.445574994087 369.59053958415984 C1383.7666588896514 370.65926055850986, 1008.1146617305278 370.5365299982071, 580.2070015382767 370.49125415325165 M580.929111651937 367.5017026490068 C580.4929665811951 298.6599620384561, 580.4634222259995 222.6246646046144, 577.5235460160376 131.2614521513368 M581.0659965486863 369.98758083589433 C578.781449408871 316.7995437677806, 578.0333667666569 264.12685800857804, 579.1208910196999 130.26810153537627" stroke="#1e1e1e" stroke-width="2.5" fill="none"/></g><g><path d="M610.8649973642081 195.68776768930258 L1172.4341303240508 193.70487225539983 L1171.2886404048652 354.16098324544726 L609.0222409855575 354.39461384303866" stroke="none" stroke-width="0" fill="#ffffff"/><path d="M609.559640533477 196.0081914715469 C723.6483124642074 190.70752232503295, 836.5117227067053 191.61003467034698, 1168.9695645113288 194.04852635905146 M609.5706560637802 194.618854733482 C796.7707285755127 196.99266708535254, 983.9866631325334 196.7698853008181, 1169.6193645384162 194.9456338915974 M1167.2635477948934 196.5156072985381 C1174.085431586221 236.24274394921957, 1171.189626072362 283.831392974779, 1170.3521444369107 357.36411411873996 M1171.0315418487414 196.1565805995837 C1172.2093292502984 249.48468403760344, 1173.3474886028393 306.5040802383795, 1171.1713922208176 356.07389108184725 M1171.1169455356896 354.27795327231286 C946.6259338699281 356.8834250070989, 722.1362327815592 357.4159913685262, 608.8800131292642 354.5137627081573 M1170.116819465384 354.79241354562345 C1024.2499877344817 352.424937473622, 877.587216291055 351.6691672552496, 609.5315513470024 355.31507115222513 M611.4075343299658 353.2896417748183 C610.0813371564896 296.2455073338002, 608.7675865437537 243.05856397859753, 609.1415144253522 195.0428261768073 M609.9169923907145 354.93969218377026 C613.2074325000867 302.26537677589806, 611.8829640602693 248.32142883781344, 611.0006000107154 194.96311724428088" stroke="#1e1e1e" stroke-width="2" fill="none"/></g><g><path d="M1192.136174395308 197.47423590756952 L1747.6414942886681 196.170808294788 L1745.8871977116912 357.7207410488278 L1191.691167965159 352.5688461814076" stroke="none" stroke-width="0" fill="#ffffff"/><path d="M1190.496139842421 194.0863334952295 C1301.3604653864913 194.49688586731108, 1412.1456809757278 192.532763977243, 1744.065291172415 195.99018364533782 M1190.5426010208578 194.57387782163917 C1357.6780226806738 198.32356066844017, 1526.806137745641 198.2385779657081, 1744.6027054934948 194.95687649078667 M1743.981240073219 197.63957435153424 C1742.1486782778652 253.53256525360047, 1743.9365871061236 317.36780736111103, 1745.4772785697132 355.31383862756195 M1743.8029616726562 196.3629007892683 C1742.729576986067 251.0583296166733, 1743.6032057514117 306.64612466264515, 1743.9409927440806 355.2607495205477 M1744.7869676031173 355.5531700716913 C1552.1568857249804 357.6596958683833, 1362.1565708451346 356.59435235966293, 1189.391351171881 354.7524178658426 M1745.2917885046452 354.8029077298194 C1610.6344583982789 352.0666410396919, 1475.2771800955013 352.6938487361297, 1190.2290302758663 355.0004463464767 M1189.6858615074307 356.0208251859993 C1193.3293894044311 297.6154621001333, 1190.4571808926016 242.45007971189915, 1192.0163917336613 194.64537556432188 M1190.1283836139366 355.80542833376677 C1193.4175134029313 300.17005970943717, 1191.9433260824605 247.25182537008078, 1189.0717945529148 195.1948637502268" stroke="#1e1e1e" stroke-width="2" fill="none"/></g><g><path d="M58.66886294186115 470.6830665796995 L1759.5068686753511 467.65782787501814 L1757.0093549996614 926.9751886576414 L58.93169300854206 932.9532153338193" stroke="none" stroke-width="0" fill="#dcfce7"/><path d="M60.19080647349357 469.5392820084095 C400.1890052536876 458.4703646168709, 740.4910016413035 459.74163990831374, 1758.8862402427196 470.2627563202381 M59.47996607363224 469.5223403018713 C738.2449744226784 463.78553217613694, 1418.0075077961387 463.35271343910694, 1760.1417270332574 469.7056223720312 M1758.7163013015052 469.8569249524295 C1762.7105357142066 562.3011164565572, 1762.1343308187231 655.7708970695656, 1759.422467708609 928.8476262657509 M1760.4933362535605 469.7571948185285 C1762.4401317734437 582.1488120003052, 1762.0099143763812 695.7888330509325, 1759.9315508859079 930.2098632595377 M1760.2806821906568 928.7300251877308 C1394.5552024074643 928.6875467357636, 1030.596254606694 928.6983996639252, 60.73921898722649 928.9997324097156 M1760.5293208175897 929.4851858752966 C1218.314108844772 926.7199062248468, 675.4006797088682 926.7449744507074, 60.45556541979313 930.1983788341283 M61.3272332621027 929.2600013596847 C58.29429835050541 771.9119907076034, 56.47219221082016 614.8587657436998, 60.713298274101646 469.83103716049396 M60.33562947208676 930.6099271000113 C62.67783563032307 807.2352562762164, 62.77011642108396 682.9481569847487, 59.549279999154614 469.8261223922962" stroke="#1e1e1e" stroke-width="3" fill="none"/></g><g><path d="M91.67652466595173 526.9221501559019 L467.71017554104327 525.683541700244 L470.04141247570516 614.8216147631407 L91.96623156368733 612.5638107508421" stroke="none" stroke-width="0" fill="#ffffff"/><path d="M90.72075030112639 526.4371856720053 C165.5449599512805 522.037116213906, 243.30319570876497 522.7538369730736, 469.7070683212461 525.9564148684536 M89.84098066798859 524.2581644769115 C231.34283621655877 522.8502871924056, 371.5600805022353 524.0619862407316, 470.2998598042529 524.1789910921044 M467.6110875338316 525.0063455849886 C467.25874637001755 555.3805516555906, 469.4039483391643 587.4264648795128, 471.5741348475218 613.6632247239352 M469.1339903488755 525.848130570352 C470.58250666165355 556.4116268455982, 468.0460590889454 586.3957880988717, 470.3570206776261 614.7451296910643 M468.674937256359 615.2456617058168 C344.880272934946 618.8837888233385, 223.1575581290664 618.591327330614, 90.58093992766275 613.9684082090889 M469.5402118002813 614.874131380126 C391.4752178389733 613.9299452784427, 311.92014145754507 615.4655766807421, 90.42970629405909 614.441240525989 M90.32923385798931 614.6475590020418 C88.9021012097001 590.9794258341193, 86.29884736829996 561.2105388820171, 88.22816374003887 525.491895416379 M91.04111744314432 616.3800980195404 C91.2297893627882 586.7641748338938, 91.29759899222852 558.8910845950246, 90.73629437834025 526.2659368619322" stroke="#1e1e1e" stroke-width="2" fill="none"/></g><g><path d="M89.58513199798763 634.5066748607903 L1727.9022052120417 637.1477904666215 L1727.593614287302 897.1552623499185 L89.86889291517437 894.329908381775" stroke="none" stroke-width="0" fill="#ffffff"/><path d="M89.26449183896185 635.285558526963 C424.2766437032819 639.4478035768092, 760.6878331957757 639.931584308964, 1728.9455776973068 634.26102669999 M90.29365679882467 635.3873360655457 C731.1522341568023 631.3064332839757, 1372.9486449956148 631.2855191370755, 1729.855831574425 635.5259290740639 M1729.4988807793895 636.4459419112677 C1728.3288195328273 715.5868102801535, 1728.7955877478475 799.8154955497206, 1729.9698792185177 896.9778770724564 M1730.3160648842838 635.776436468671 C1731.2322589871562 718.3241504286401, 1732.8814457001156 800.4253887662411, 1730.6354477056204 895.4398668015126 M1730.798301510364 895.0922067718208 C1127.800393668413 902.9906763883412, 525.6288769702613 903.5136761756718, 91.01698899224401 894.2356446103752 M1729.4554728951305 895.4121208450944 C1079.757869958654 887.3490360517054, 429.48465812020004 887.7698868889362, 90.39030926130712 894.9783525560051 M89.8018418600581 894.1019228648939 C93.26272790124212 816.6902530172058, 94.9719134040569 737.376677614779, 91.30958151413238 635.2160030836709 M90.16670873486034 894.2193940432628 C90.66992046182666 791.2629662626221, 92.10567905104254 688.707067875995, 91.01606994668523 634.5169908432941" stroke="#1e1e1e" stroke-width="2" fill="none"/></g><g><path d="M121.86257441360503 695.3295191286131 L476.4178572865203 695.1890776215121 L477.96586801130326 805.2147736189887 L118.53736220318824 802.4109100995586" stroke="none" stroke-width="0" fill="#fde68a"/><path d="M118.39438916626185 694.6132219057182 C191.9768652973017 696.8588604878431, 262.94801206777976 697.2669164093122, 477.2095010314851 694.5592546579282 M120.30640291625429 695.5133388309139 C230.91277249919378 693.0147793343704, 340.8593772731881 692.1405817286562, 476.31814253785967 694.807290143386 M477.36866383533925 696.3719956608489 C475.91299198227 719.5536163188517, 476.8721901770122 745.9214157564566, 478.95681139808147 804.2429967911914 M477.5827712015249 693.9486688076519 C477.0323083213344 724.6999314838089, 476.6208070537821 754.3065468478017, 476.09860614398497 804.8171762972139 M476.55197960086105 805.7930616441276 C388.15792327227933 802.1588995020115, 300.7608114302256 801.3624808103721, 121.5351673343845 803.7560435138872 M476.5793729116819 805.438490196543 C400.1009864215998 804.0749230196412, 321.318332131684 803.8099770922051, 120.0779140256069 805.4597758304112 M119.47269324045628 805.3754100652411 C120.84186197095737 762.3390984740108, 123.7257935183607 720.4743782600387, 118.67449398618191 697.4992069872096 M119.3224100367166 805.0548823474907 C120.5052306291759 774.6832005445846, 121.49757057103514 746.422504974436, 119.42691704491153 695.7126749246381" stroke="#1e1e1e" stroke-width="1.8" fill="none"/></g><g><path d="M525.9224850101397 692.6739244507626 L885.6071627600119 695.5535885320976 L883.4720328850672 804.6993950771168 L524.4997675044463 803.0772071229294" stroke="none" stroke-width="0" fill="#fef9c3"/><path d="M526.772228027277 696.3618893324523 C597.1078558355641 692.134109744046, 670.022589942975 691.237731606266, 882.5028392675475 695.4042665065442 M526.729579376645 695.504228270269 C665.4253051996011 694.1978681458152, 802.4369384555223 695.0446067098757, 884.0209030887216 695.009854560844 M882.5875431107357 696.6934983236715 C880.0443270025066 717.9868020735681, 880.4510161158852 744.3255875052885, 885.7172234879806 803.8949883146212 M883.5892351052723 694.5677666031755 C883.4190068161115 734.7003592356108, 882.3639611428604 775.0792372112162, 883.7914107075892 805.9862660401501 M885.5853213515401 805.1245205089867 C791.9169110590018 803.3844663527351, 699.6397725933413 804.5894654709494, 525.9963602419624 803.7323706491865 M884.2168439275443 805.52518201432 C755.3834255001277 807.7357891352978, 627.0699465853926 806.7017375570202, 526.4376830365518 804.9099892338187 M528.278961913474 807.3705252988264 C529.4961580024101 777.3594362858682, 528.0449625180104 745.8428890133276, 525.7486603723839 694.7848353428766 M527.3509909710847 806.0851652287878 C528.1568876595795 778.6099028768949, 529.5388683916628 754.6728997451253, 528.2855348519049 694.8528363042511" stroke="#1e1e1e" stroke-width="1.8" fill="none"/></g><g><path d="M934.7467376599088 694.373581459187 L1291.150616414286 695.8049340089783 L1291.569547391869 805.2221529146657 L935.1433438250795 802.5497804125771" stroke="none" stroke-width="0" fill="#fef9c3"/><path d="M933.3615121805424 695.6175210431486 C1006.1842303532808 698.726120120452, 1079.7891506811054 695.8588884033984, 1290.2172630880327 696.0188859511574 M934.3486168509775 695.3013639346834 C1048.8188355108607 695.141552260548, 1165.1671276684374 695.0154346492789, 1291.0563363189312 694.416786172619 M1292.5391810914502 695.2104653904214 C1290.1381691486276 728.5763990052044, 1293.7087388843931 765.2075496381149, 1289.6066825350747 804.9726505884901 M1291.5352034573443 696.2060894678347 C1292.411978014119 731.5114103686996, 1292.5515672135427 766.0301661564969, 1290.7393073593266 805.1055420557968 M1292.150704294297 805.6878892020794 C1151.3116390199389 801.8502196512205, 1009.7851510726791 802.561795722423, 933.2564802432978 803.8702088692319 M1291.1069469071479 804.590779897749 C1188.1204233775568 802.0290323803068, 1085.5759263404345 802.5645653234495, 934.5115090706794 805.3491968467329 M934.1570463558659 804.1846440026536 C935.4214501908832 771.9861309658736, 936.0986639848762 735.2320463730023, 931.710495599173 693.9330676803365 M934.5910799567588 804.6205927024596 C935.2905949302614 777.3741870054043, 935.1626378574073 747.369872201141, 934.5439122294076 695.3872257332317" stroke="#1e1e1e" stroke-width="1.8" fill="none"/></g><g><path d="M1340.3573703557254 692.6244412153959 L1697.801908376813 695.7192571371794 L1696.861268785596 806.5055494993925 L1340.1798851758242 804.8373222082853" stroke="none" stroke-width="0" fill="#fef9c3"/><path d="M1339.845030038411 694.1876203039301 C1413.5474312973279 692.5117582987618, 1484.5454504011225 692.8650621683844, 1698.6200261408005 696.0538048213919 M1340.8387493378502 694.5336489712018 C1445.3706490946104 694.4437716249682, 1548.1449169591265 693.4642463461981, 1698.46983111152 694.8805339468448 M1699.5055172652005 692.6239084988832 C1699.179520524323 730.2751379609108, 1696.874504292786 764.5137484043837, 1698.94447247684 807.2309295445681 M1697.3422308817505 695.0268929824233 C1699.9477212053537 737.5355828776956, 1698.8473568540812 780.4020227119327, 1698.8977296248079 805.1067190989852 M1696.3833460540664 805.924527196688 C1567.2753232277048 803.4923493049404, 1436.2910699171587 802.4704817997485, 1341.234664598243 804.4431091397063 M1698.1645638973494 804.4236972700353 C1599.1969179066537 803.6102555293692, 1500.7154286507457 804.8340279737095, 1341.3656925392663 804.7682272400093 M1339.6172518461942 805.5638676434755 C1343.3013766960503 763.8803078591824, 1339.8437054352164 720.1272931188345, 1343.479491969943 694.156881120801 M1340.036572636664 805.5977444037795 C1339.873525252819 762.9194674685598, 1339.66623646307 719.3382959410549, 1342.2806730642915 694.169486413896" stroke="#1e1e1e" stroke-width="1.8" fill="none"/></g><g><path d="M119.88906857836992 855.0293464941903 L884.7846210645512 855.6434069497511 L883.2968714343384 884.8810069484637 L120.88640928734094 884.8627092344686" stroke="none" stroke-width="0" fill="#f1f5f9"/><path d="M119.388673023507 855.5555177063495 C274.15291856391354 854.6854855193503, 429.0977444723621 856.2984037031539, 884.1559641187638 854.7839768476039 M119.6408244619146 854.9976010796055 C379.9758246429078 853.9564784515388, 639.2623248010128 853.4532946014888, 884.7264770290628 855.2926698907837 M884.3717672629282 854.3775488065555 C886.2332756994292 864.0412689166144, 887.0573564110324 872.0652843223885, 884.9208221418783 888.6056106077507 M885.8197812252678 855.2595249018632 C885.8566237984456 862.8238243362866, 884.3691231517352 870.5959567747079, 885.2584725224413 887.5271307638847 M884.1906303589791 886.3980582804232 C659.9417853582091 885.5745114693813, 436.2272072489187 885.290481868761, 120.37329361610115 887.3761428184063 M884.7300011667982 886.6863225146756 C600.48816562647 883.6515601827107, 316.7650883640349 883.5521541799508, 119.62980969402939 886.8237404927239 M121.9840271634981 887.5752092169598 C121.98165883596391 879.3869448559359, 118.63672595198602 871.7147985445336, 120.36861938070506 855.0261260138825 M120.91959695750847 887.4647358915769 C119.8886987307109 879.2477667949163, 120.40315788472071 871.9364029190504, 119.16475359434261 854.0207525125704" stroke="#1e1e1e" stroke-width="1.2" fill="none"/></g><g><path d="M934.2753329057247 854.5946922343225 L1702.188842977956 855.4393889110536 L1701.7421254653484 888.3383378308266 L937.1054318327457 887.099998466298" stroke="none" stroke-width="0" fill="#f1f5f9"/><path d="M935.4213947741687 855.8271438987554 C1090.571366407089 854.9748619173482, 1246.2334735075385 854.5161965797856, 1700.0625048463046 855.5314359720052 M935.0056849268824 854.8571055396646 C1093.5020238528773 858.6685877802566, 1252.0235657970607 859.061525223513, 1700.4258518222719 855.373312888965 M1699.5724735300987 853.8697713989765 C1698.3031136409968 867.7403639275581, 1699.1181392209262 882.1416834611446, 1701.8885097425432 888.0537822980434 M1699.1895308980718 855.4459808250889 C1700.7452536858575 862.3740599891171, 1700.3330212570684 870.248393692635, 1700.3688187191262 887.8483909448609 M1700.0160791365802 886.9960018642247 C1493.4092584269122 887.6162589706585, 1286.4351102941482 887.0444414724514, 935.7061134640873 887.6430249555409 M1700.0801876095682 886.616101468429 C1461.8869234845415 888.4245772073255, 1224.3777344480156 889.1280091879353, 935.0369885686785 886.9551986797899 M936.1177804749459 886.1813061136752 C936.516448828289 873.4963446456939, 935.5820672121733 861.59428303428, 934.5176263492555 855.1415049094707 M935.8536734232679 886.4698145648465 C934.9790607428089 874.3825769444927, 935.0333959257141 862.6020308753476, 935.6353984544054 853.9187926014886" stroke="#1e1e1e" stroke-width="1.2" fill="none"/></g><g><path d="M61.424516659975055 981.2436936557293 L602.3364557087422 982.2535166919231 L598.7042358219624 1359.367361944914 L62.728442937135696 1359.0690184772016" stroke="none" stroke-width="0" fill="#f1f5f9"/><path d="M60.991309325695035 979.9724606251716 C169.70959951505066 982.3665054786683, 280.203326716125 982.6547845161439, 601.2752209925652 980.9925321125984 M59.76433147072792 979.4044235074521 C226.68868358150127 980.0185492166995, 393.4236179676653 980.9572569880008, 599.8633357203007 980.1985546338558 M599.6456317129174 980.0628142352114 C599.6414898912451 1083.300214763541, 601.7080232550737 1183.6204646091924, 601.6958510524503 1358.4485528255186 M600.0790535411792 979.3515662587662 C596.8675783206171 1078.9845717327148, 596.3726472057957 1177.0597340152879, 599.1006437758164 1360.5176224339648 M600.4454449152946 1360.6315061879159 C468.74416336432097 1362.032433868599, 340.71316257506606 1360.472348648262, 59.22155873060226 1359.541484901905 M599.6545842325687 1359.7154903256894 C404.74429854139686 1356.9938521255972, 209.9534232506156 1356.4041248383046, 60.04596397042275 1360.4868162763119 M58.88369791349798 1361.0511024612053 C63.373062694473646 1271.0831931078217, 62.44336871394196 1182.4392639897285, 60.59201459494978 978.3982728209219 M60.5001190277724 1359.2575896013661 C56.42550920431855 1269.6350135397538, 55.50621526265385 1178.8594433590313, 60.824656094379876 979.0919318108054" stroke="#1e1e1e" stroke-width="2.5" fill="none"/></g><g><path d="M88.3544819585979 1054.1986234791577 L569.5539624206722 1057.5200082667172 L569.7190427057445 1274.5104489929975 L87.68334097787738 1273.5523431189358" stroke="none" stroke-width="0" fill="#ffffff"/><path d="M89.85347076827013 1054.0670111673235 C185.45048481929575 1055.4531268357441, 282.4946326365491 1054.671738786992, 570.9901574184745 1055.6618911848855 M89.70874324634647 1054.4902043908114 C246.86085343545236 1053.0216025795467, 403.151299862355 1053.7140666037035, 569.9778367827727 1055.336241219263 M569.7536058657761 1054.0086932779438 C566.2047897597654 1121.9722001726407, 569.1403451280031 1189.53353220927, 570.8969365912412 1276.9116126064237 M570.1213092132319 1054.4974107166654 C569.5658058818598 1121.7160341353228, 568.4264128356114 1187.8463511915465, 569.1639186309075 1274.6345993316427 M570.6724887501326 1275.4228256542337 C415.42271122633684 1277.952572182438, 260.9448813335148 1278.3878341399572, 89.62194532463825 1275.255165612485 M570.5596282615836 1275.2978549005263 C429.34443454129615 1273.1400945636226, 288.12221694283863 1272.2668031433593, 90.03229695072734 1274.9273405597808 M91.38792472355989 1273.1171717594834 C88.8997114324144 1232.447824161125, 85.2090129004965 1185.6061768137815, 89.39350248918312 1053.096984958694 M89.10643179137811 1275.702210012815 C92.31218551155273 1205.3525019166495, 91.50499995188112 1134.990781608978, 90.49233787347166 1055.520926750508" stroke="#1e1e1e" stroke-width="1.5" fill="none"/></g><g><path d="M628.9757273495197 977.3348886668682 L1168.8108383953572 979.5801822841167 L1167.3790365993978 1358.675689524412 L627.4090328991413 1360.2270744502543" stroke="none" stroke-width="0" fill="#f1f5f9"/><path d="M630.97402146101 980.0299444127082 C738.9257214675844 979.5053868141174, 850.0550850483775 979.8623487129212, 1169.8449509501456 981.0673144841194 M630.5970266115665 979.8715669286252 C805.6839289499819 984.0475914766788, 982.388737782538 983.454565239191, 1169.8657934343814 979.7948710286618 M1169.4327688034048 979.9409891563663 C1168.8989266835908 1110.069478624229, 1168.177814562953 1243.583514797109, 1168.352740595788 1361.0744192855225 M1169.4264932273272 980.3473763169188 C1173.166422644647 1107.8577096203621, 1173.3712266097052 1237.2531452182693, 1169.925777998479 1359.6512045730349 M1170.5558059763907 1360.5102863621712 C991.2447118677198 1363.2286106355666, 812.3586250832677 1362.7882239015578, 629.627140738964 1361.0706105351449 M1170.5042166292667 1359.840911334753 C978.2078627966345 1357.7905762978078, 784.5419935831428 1357.7179821892262, 629.838132377863 1359.6080118215084 M630.242294614276 1360.1380457164057 C628.6144049610447 1210.7154614283106, 627.7471795292495 1064.551168825701, 630.0513158481875 980.4737078591118 M629.7107299073105 1359.6396757830234 C634.1252192795016 1225.8826606811317, 633.8239289479901 1090.1503274147196, 630.1278621012525 979.7458895606848" stroke="#1e1e1e" stroke-width="2.5" fill="none"/></g><g><path d="M661.4599600270391 1053.1304652020335 L1141.6857673600316 1053.8762360855937 L1141.1920876935123 1150.0650535389782 L659.3993800118566 1147.4725523278116" stroke="none" stroke-width="0" fill="#ffffff"/><path d="M659.2122005591084 1055.5877047240388 C755.8035207697422 1056.5409490365305, 852.5573721031329 1057.922385960632, 1140.6694379989701 1054.605276291753 M660.073752269311 1055.3494719100058 C801.7203236226046 1055.2366439617338, 943.6979604993587 1054.516353876785, 1139.4745864817341 1054.8300877847983 M1138.8334482952953 1055.1826621964574 C1138.8175101686566 1086.1895593948661, 1138.168681137666 1118.5177410781384, 1138.5125959679485 1147.9199688389897 M1141.0712936140596 1056.014044275135 C1137.3512406263203 1089.0020834833383, 1139.7377854976505 1123.513550273329, 1139.877095220238 1150.4633761070668 M1139.4901449152496 1150.600900010613 C1003.2193141515638 1150.0370379960598, 864.9608698241117 1150.7162503991956, 660.8117778891994 1151.0849215466806 M1139.4537658343054 1149.636399751559 C1030.9196910671767 1148.248081374049, 922.9512780652075 1147.502806995628, 659.9208801876433 1149.6493177303096 M659.0772317692638 1150.2547341302038 C656.8155879991203 1117.4224918447435, 659.8790667073876 1085.7756942003966, 660.9964276596904 1053.5595609143377 M658.7693092562258 1150.7271072767676 C661.4255323613435 1130.7369245901705, 660.7774809802323 1108.9154331572354, 660.3947596050799 1055.0408968113363" stroke="#1e1e1e" stroke-width="1.5" fill="none"/></g><g><path d="M661.9109808521346 1162.1567133856938 L1137.511840821989 1158.468318225257 L1137.7890513854102 1275.0994251323864 L659.7505654232576 1272.5435460699723" stroke="none" stroke-width="0" fill="#ffffff"/><path d="M659.5456730655904 1159.9254851184362 C755.7906885343629 1156.6822366902675, 854.545137569406 1156.5088212354226, 1139.7092717563246 1160.2188655493728 M660.1177921283924 1160.4882356261794 C826.3660580115779 1157.6456072471228, 992.6967180251262 1157.2553726439232, 1140.4636535518007 1159.6788629710907 M1139.8428017569706 1158.6836107270792 C1141.5396111862044 1197.670235682372, 1138.6192105249743 1237.358546924591, 1138.231361736171 1274.6623667078093 M1140.9450484850445 1158.8354215777479 C1139.0530340157432 1189.1434129446745, 1140.1706239394825 1218.5760662340558, 1140.6258181341923 1274.467155600246 M1140.6330236995548 1274.1937492034147 C963.8104210463921 1276.1256671307622, 787.1000661544467 1276.2738911505762, 660.8309725708652 1274.3937522341093 M1140.3966803047335 1274.8739937939647 C992.0000400651088 1275.1691462235747, 844.6363143964594 1275.3135782939037, 659.6732760629941 1274.7368367903214 M657.486935932748 1272.4844096796587 C660.1910691673029 1231.5839827383868, 657.7346077913511 1188.4299320254474, 659.9536418927834 1158.247806544788 M659.1211313643493 1275.3320885038934 C661.6432426350508 1249.9220266861842, 661.6910913097057 1225.7477779139765, 660.8713882037439 1159.979982919153" stroke="#1e1e1e" stroke-width="1.5" fill="none"/></g><g><path d="M1200.894237920642 977.7586673051119 L1740.6294850558043 978.6731287270784 L1741.7967848032713 1359.7992387086153 L1198.651703569293 1357.9829933434726" stroke="none" stroke-width="0" fill="#f1f5f9"/><path d="M1198.7799672806264 980.6006031119823 C1309.5990769771486 982.0845053676605, 1420.2742132849992 982.0062616924287, 1739.6012492096424 980.5405986487865 M1199.991588730216 979.7395962578058 C1410.4777426280825 982.465859660697, 1621.09474064216 982.0590620036841, 1739.391474804282 980.600277505517 M1738.0985882173716 980.6625607422437 C1738.4577093265505 1131.6451159832377, 1735.888374600794 1284.5232096606637, 1740.437344396547 1360.4907257168616 M1739.3238135886736 980.9254188607829 C1742.6600411510215 1110.2316979522238, 1741.9726900926885 1240.314199889658, 1740.1375656651396 1359.7056619551008 M1738.7371850693225 1358.8204812705517 C1536.5537223788351 1361.4443618395806, 1332.1873019246757 1362.5204077151297, 1199.3131374084949 1359.0158454596997 M1740.6128376239537 1360.2049458748102 C1586.4207614896447 1364.5083630276442, 1433.4733966590463 1363.9145573139906, 1199.7209158366918 1360.3283529525995 M1200.0869676941763 1361.2473255835237 C1200.0871624128317 1265.110989263304, 1201.9103046344017 1169.2244301002195, 1199.8357187778317 978.9203247112788 M1199.3784735116024 1359.6345585573763 C1199.149475676709 1266.2658489783453, 1200.30550065399 1173.049800931831, 1200.4371691636604 979.7114190551059" stroke="#1e1e1e" stroke-width="2.5" fill="none"/></g><g><path d="M1232.257121060416 1052.8907073456794 L1708.334283290431 1056.7887123901396 L1712.1357844334095 1276.250385113433 L1230.9398105245084 1275.7938285429032" stroke="none" stroke-width="0" fill="#ffffff"/><path d="M1229.2530900614604 1055.7333687557775 C1326.8255577188745 1056.6726748874642, 1426.7356876276733 1057.046785635392, 1709.687137706148 1054.7100254677014 M1229.7940029311062 1054.9486414254234 C1397.8730230855401 1055.4980195549747, 1565.3879059292535 1055.3731343122067, 1709.8208053365886 1055.5032604640262 M1710.2237570241023 1053.8526232408121 C1711.6734430191348 1115.6151642355874, 1711.4543210219747 1176.1053262315077, 1709.9612339290334 1273.927792367265 M1710.0293523719204 1054.5685597658755 C1712.5288402109284 1128.8935718010587, 1712.530808110404 1203.2553231528993, 1710.9523615578835 1275.45872299385 M1710.496432120815 1275.3243598589559 C1556.6795450678599 1275.6636684393982, 1400.6652971390924 1274.539430627565, 1229.4300513299174 1274.439590446284 M1709.4859881337077 1275.4662542049405 C1553.839417972178 1275.5169783039582, 1397.070066167042 1276.2240154585634, 1229.4971635382935 1275.319750970819 M1231.6747325199335 1273.594243311136 C1232.2343036793218 1188.3915828837562, 1231.5939591956887 1103.184826700539, 1231.1607480670077 1055.936621734386 M1230.2967287012802 1274.4249478947772 C1229.7401206794143 1229.7527274676984, 1229.9049088411084 1185.9464026869402, 1229.5825658606175 1055.9301062676025" stroke="#1e1e1e" stroke-width="1.5" fill="none"/></g><g><path d="M61.33648469299078 1421.4526153579354 L1760.7959429010748 1421.7597777858377 L1760.6335001692175 1508.8866683021188 L59.16561157554388 1510.0363630786537" stroke="none" stroke-width="0" fill="#f8fafc"/><path d="M60.15323446333409 1420.9407795995473 C402.656664262563 1427.1310973069667, 743.4263251408936 1426.9643099114894, 1760.6627290350198 1419.5532494443655 M60.32206724613905 1420.2680383780598 C630.5046352548898 1429.2457811526656, 1201.336367997527 1430.0286674956678, 1759.8348552080988 1420.1357501414418 M1761.4445358291268 1419.589007781446 C1760.2258025926649 1443.9218177188188, 1760.522175530821 1470.0476192943752, 1760.6867308154701 1510.3831935629248 M1759.7052839629353 1420.962174845487 C1761.0063769935368 1439.1265688721091, 1761.6564742921591 1459.2350554585457, 1760.1341158978641 1511.1085057981313 M1759.3658469587565 1509.3585461324453 C1153.4079670004546 1510.2996649942397, 547.3165134337545 1510.7317313585281, 60.25676853239536 1510.8738272565604 M1760.349159130752 1509.5404005339742 C1243.9874650596082 1518.189868426025, 727.5545255661009 1518.4456618735194, 60.013450388610366 1510.3037086108327 M62.00646562725306 1509.7022931322456 C59.61430031749606 1481.3630225997417, 57.67452518436313 1450.1084429241716, 58.22459139972925 1418.4514563307166 M59.51042669937014 1510.6072052963077 C59.166154591619964 1479.6140611123294, 59.98591283994913 1451.9324411287903, 59.431053983420135 1419.6068336732685" stroke="#1e1e1e" stroke-width="1.5" fill="none" stroke-dasharray="10 6"/></g><g><path d="M1169.6878210991622 273.0122776538134 C1171.8736885145306 275.71784105384353, 1177.1426583468915 274.0531024941206, 1192.1095193833112 276.41015181839464 M1169.3794807210566 273.91388611644504 C1176.7287483602763 274.304583155334, 1182.2422509238124 275.7798700682521, 1189.952781511843 275.71635818332436" stroke="#1e1e1e" stroke-width="2" fill="none"/></g><g><path d="M1189.884615975991 275.6977770563215 L1176.7962856952101 279.1067934866995 L1176.028396469727 270.3259901996702" stroke="none" stroke-width="0" fill="#1e1e1e" fill-rule="evenodd"/><path d="M1189.3743381705776 275.5830990025398 C1187.1153370284821 275.8256643965062, 1184.6592612012362 276.7053014376564, 1175.5381133979272 279.80709581860566 M1189.9260718002263 275.16033220424305 C1184.9330340913423 276.43185621396924, 1180.4176639075763 278.46585018264756, 1176.1695967088694 280.15599606342977 M1175.7954011974857 279.81120382864026 C1175.4408166049236 276.1335823971778, 1176.429959982466 272.9936473136768, 1176.0560014961288 269.64821963030846 M1175.8216056511737 279.9263878076337 C1175.9227981663496 276.5555306178518, 1175.9264588899166 272.57936022235083, 1176.199430473242 269.7083738624118 M1176.110043006489 269.3476386894523 C1180.4925852390222 271.13405248406906, 1186.0812383513326 272.9274780506263, 1189.6277189379282 274.13011173874986 M1175.5763801909131 269.7257575074117 C1179.436625106181 271.401250333311, 1183.3188187249546 272.82757505196025, 1189.998345390419 275.4071121525509" stroke="#1e1e1e" stroke-width="2" fill="none"/></g><rect x="1125.4" y="263" width="109.19999999999999" height="22" rx="11" fill="#ffffff" stroke="#1e1e1e" stroke-width="1" opacity="0.95"/><text x="1180" y="280" fill="#475569" text-anchor="middle" font-size="13" class="hand">owns / stdio</text><g><path d="M526.0908132396638 749.0458918131887 C517.0582714641466 749.1514941832423, 508.906670698151 750.3486200711131, 478.5412900529802 749.6121474064887 M528.0210924286396 750.3526228588074 C516.8924787150696 749.2419004545361, 504.59732638150456 749.2660122618825, 476.02945635505023 748.8877146285027" stroke="#1e1e1e" stroke-width="2" fill="none"/></g><g><path d="M477.05395678952334 750.5481870822608 L490.13864781334996 744.268598216027 L491.9044858403504 754.6359995536507" stroke="none" stroke-width="0" fill="#1e1e1e" fill-rule="evenodd"/><path d="M476.1524591735278 749.1833152316485 C480.70771535996323 748.403980620103, 482.4244543877735 748.3238799263353, 490.3269299907035 744.1388643887212 M476.6442154879205 749.8030770624352 C480.29475069803675 748.4561608241521, 483.7740501373052 747.9197090390319, 490.8264413274441 745.3683416682609 M490.7953116860241 745.2903960678726 C491.4856610130146 747.027015992999, 491.24825458038595 749.7501566853374, 490.5777335014194 754.9738470170647 M491.2645364688709 745.2398888690398 C491.21677565179766 748.1118047343567, 491.0478731056303 750.7659332385286, 490.7240824924782 754.9859944147989 M490.82790917139874 755.7574713403113 C486.64835187039046 752.6404874237113, 481.0171118358274 752.2727858659346, 476.5152846352902 750.3075528729622 M490.8794319111423 755.1236973263565 C486.9574175638215 753.8504282638854, 482.7113092682006 752.2290738607512, 477.25531009525145 749.8052949818671" stroke="#1e1e1e" stroke-width="2" fill="none"/></g><rect x="466.4" y="738" width="71.19999999999999" height="22" rx="11" fill="#ffffff" stroke="#1e1e1e" stroke-width="1" opacity="0.95"/><text x="502" y="755" fill="#475569" text-anchor="middle" font-size="13" class="hand">invokes</text><g><path d="M932.3631334342062 749.6140025697648 C924.9977881615981 748.158120470345, 914.1600834224373 748.2362566521763, 883.3122305192053 752.2793925605714 M935.1567084234208 749.4723069448024 C921.7654255909845 749.6596566583961, 911.937660138309 751.1298382546753, 883.3997080605477 750.9077906984836" stroke="#1e1e1e" stroke-width="2" fill="none"/></g><g><path d="M884.3575312823057 749.9925281792879 L897.3277424067259 744.8537150651216 L897.4799084872008 756.0625856667757" stroke="none" stroke-width="0" fill="#1e1e1e" fill-rule="evenodd"/><path d="M884.6659439728568 749.3944545707323 C886.2100461336122 749.6705910998494, 890.4538679242737 747.3972063104053, 898.2824244336076 745.1301506343849 M883.6946174054618 750.3678702648504 C887.6491842115446 748.3611118633648, 890.5206399682594 747.4303734571233, 897.9640460101375 745.2271422867005 M898.5020424500108 745.0911044701934 C897.6749083571136 749.2378699421882, 898.4738794855774 752.1855738297105, 897.800078882277 755.00772639364 M898.1665757231415 745.1767317600548 C898.2025565972924 747.5943430237472, 897.7864164462686 750.0943586148321, 897.7257968716324 754.9407905645669 M897.2425723598255 754.8198582963159 C894.4108820211144 753.2815461015671, 892.1774137151967 752.5784605538897, 883.2599984253377 750.763261032777 M897.6982311507634 754.9820012488701 C893.9094979456512 753.7651383920459, 889.73427558526 752.5402188970426, 884.1235588501042 749.7451505804175" stroke="#1e1e1e" stroke-width="2" fill="none"/></g><rect x="869.6" y="738" width="78.8" height="22" rx="11" fill="#ffffff" stroke="#1e1e1e" stroke-width="1" opacity="0.95"/><text x="909" y="755" fill="#475569" text-anchor="middle" font-size="13" class="hand">resolves</text><g><path d="M1338.6476091586053 751.3416950382292 C1329.487237953581 748.743517074287, 1320.5152662541718 748.8543709132075, 1289.6888296090067 751.2940563596785 M1341.7068356472998 748.863530812785 C1330.4572430269793 749.6650972721725, 1319.0304489448667 750.3583491323143, 1289.8682316858321 749.6117068033666" stroke="#1e1e1e" stroke-width="2" fill="none"/></g><g><path d="M1290.3648979909717 750.5909221999348 L1305.405513048917 745.1203842751681 L1305.6693466432394 753.831815802306" stroke="none" stroke-width="0" fill="#1e1e1e" fill-rule="evenodd"/><path d="M1291.4000181460704 750.0365544459927 C1294.061750710419 749.8264588631706, 1297.1848727038384 747.5698641020309, 1305.050736413904 744.7639487418426 M1291.4193855398669 750.141617569093 C1294.4643914910419 748.6005120308457, 1297.6827384317226 747.3734749575385, 1304.766521902035 744.7454504795229 M1305.3337201651186 745.2060904387384 C1305.2294771601632 748.7531661957503, 1305.2915302802994 752.6769391115755, 1305.2642276700585 754.7338613990694 M1304.7700932623818 744.7718684343621 C1305.3141113378852 748.4543529810384, 1305.2437265434116 752.4159297442063, 1304.7808077754453 754.7721285192296 M1305.6353155398992 754.8058862528774 C1298.9444550228682 752.3367572589582, 1293.9038868830644 750.7611968424598, 1291.0136816484442 750.3733996671189 M1304.8524840571329 754.8075304524621 C1301.461712149603 753.8358908563589, 1297.790716387156 752.7659943832135, 1291.3806042077983 750.3606353253036" stroke="#1e1e1e" stroke-width="2" fill="none"/></g><rect x="1272.8" y="738" width="86.39999999999999" height="22" rx="11" fill="#ffffff" stroke="#1e1e1e" stroke-width="1" opacity="0.95"/><text x="1316" y="755" fill="#475569" text-anchor="middle" font-size="13" class="hand">populates</text><g><path d="M301.7624737076461 371.1683417864144 C301.2782088688463 400.43527510398997, 301.2264142683596 432.29015474114567, 299.67957525774835 523.3772667713463 M299.9932409439236 370.13360413573685 C300.3768689106703 419.23220001412557, 300.89400671231743 465.26892112139615, 300.8824351105839 525.8252229955048" stroke="#1e1e1e" stroke-width="2" fill="none"/></g><g><path d="M301.1317452393472 524.274448529631 L295.10497381314633 511.79093438759446 L304.99382357224823 510.457655993849" stroke="none" stroke-width="0" fill="#1e1e1e" fill-rule="evenodd"/><path d="M300.1453863781908 524.9721274120164 C298.653357312757 521.5302665320687, 297.5193994855619 519.4342768747063, 295.4189487370363 511.4638471279805 M300.1541768419141 524.7216783775823 C298.17973056994134 520.6802573061788, 296.5568078114108 515.9181045522797, 294.6231399417821 511.1964558579807 M294.7777652580291 511.5067703228444 C297.76795709207653 511.3206775159761, 299.91755635105073 511.6415809721872, 304.53288497515024 510.8906354766339 M295.12730651404706 511.0127395668998 C297.39345481414347 510.93801006868483, 299.7931287718937 511.05851222470403, 305.26905999090525 511.19482098612934 M305.72950982521564 510.4251243363139 C303.0259796197191 514.9485364406146, 302.5293818373568 517.5474533057273, 299.7219319548416 524.6535427374571 M304.95340700553413 511.443086983589 C303.0546233395667 515.5496337751911, 301.81041229436465 521.1104283067929, 300.27169488533764 525.435282623931" stroke="#1e1e1e" stroke-width="2" fill="none"/></g><rect x="180.8" y="435.5" width="238.39999999999998" height="22" rx="11" fill="#ffffff" stroke="#1e1e1e" stroke-width="1" opacity="0.95"/><text x="300" y="452.5" fill="#475569" text-anchor="middle" font-size="13" class="hand">rosbridge JSON over WebSocket</text><g><path d="M1170.3719435893 372.0889990963042 C1168.8911002774535 392.24726913906636, 1168.5138909240065 410.464930203557, 1170.5849688492715 468.6313231863081 M1169.5418661553413 369.02118447832765 C1170.5059876153618 398.63733471482993, 1169.3478635857255 427.20532630570233, 1169.213722093776 469.1791886549443" stroke="#1e1e1e" stroke-width="2" fill="none"/></g><g><path d="M1170.4257860429584 469.518079649657 L1165.4227685935796 456.2627806775272 L1175.6860849149525 456.40492967292664" stroke="none" stroke-width="0" fill="#1e1e1e" fill-rule="evenodd"/><path d="M1169.628593469827 470.314291283555 C1169.6785114988804 467.6137923545739, 1168.4265798070148 464.59863875951817, 1165.7554398214104 456.5582676312435 M1169.9864226259674 470.20020982484857 C1168.257299847697 465.3408699906518, 1166.9959758956304 461.37075805781683, 1164.894924005936 455.58470436630023 M1165.1242771919817 456.184334147349 C1168.3482854269446 455.60903250966226, 1171.6100191105156 455.6234711268917, 1174.6671939071268 455.51709091700616 M1164.7392692090943 455.863992193155 C1167.126580456458 455.79867674812675, 1169.512012011744 456.1769445191324, 1174.7567368807272 456.0459695784375 M1174.405026659449 455.50276983516295 C1172.3230309332432 460.70435880555584, 1172.174115278711 466.81085703360515, 1170.4300305953352 470.21775417048076 M1175.1908062076488 455.9848963277007 C1172.9189136028651 460.8143624904682, 1171.482166647399 465.1223934041738, 1170.297846027186 469.7558500189061" stroke="#1e1e1e" stroke-width="2" fill="none"/></g><rect x="1024.2" y="408" width="291.59999999999997" height="22" rx="11" fill="#ffffff" stroke="#1e1e1e" stroke-width="1" opacity="0.95"/><text x="1170" y="425" fill="#475569" text-anchor="middle" font-size="13" class="hand">ROS 2 DDS  (*/skills + action goals)</text><g><path d="M327.69825719967486 928.1732855044305 C328.89213568657635 942.3045675778761, 329.8387767264247 951.766827281937, 331.3790738739073 978.0749673806131 M329.46729910187423 929.594946571067 C330.94312914825974 945.4990442143753, 331.26966538645325 959.4265263333916, 329.91103135161103 978.9943736154586" stroke="#1e1e1e" stroke-width="2" fill="none"/></g><g><path d="M329.1640322238207 980.5994760483503 L325.5083299189806 965.9935191124678 L334.1610779315233 965.5928325623274" stroke="none" stroke-width="0" fill="#1e1e1e" fill-rule="evenodd"/><path d="M330.41884157758176 980.6429378469431 C329.1836582106763 977.607955704937, 328.4129933393501 975.0021343847816, 324.2666420689529 966.3514970398577 M329.9587096523892 980.4134494927303 C328.3464044952921 975.6877561013787, 326.71387143902166 971.495424052927, 325.15408019006384 966.407981664076 M324.6876657947898 966.1155802980065 C328.39224797189235 965.5660500325263, 330.88125245124104 965.4720810212195, 334.8717418655753 965.6515931859612 M324.8262527830899 965.8480925314128 C327.96571638807654 966.0850504392386, 331.0572681583464 965.9208033317327, 334.90287662819026 966.1577193729579 M335.8496383815417 966.3838552974545 C333.17763944938224 969.0311705643276, 332.990661123066 973.7049379883634, 329.4605789537146 979.8234070604459 M334.76360079385256 965.6709691236218 C333.54322192225 969.2897059908559, 332.87814736925964 972.111790076419, 329.77067974087345 979.7565609564855" stroke="#1e1e1e" stroke-width="2" fill="none"/></g><g><path d="M329.1640322238207 930.5994760483503 L325.5083299189806 943.9935191124678 L334.1610779315233 943.5928325623274" stroke="none" stroke-width="0" fill="#1e1e1e" fill-rule="evenodd"/><path d="M330.41884157758176 930.6429378469431 C329.29187207553923 933.2935516852235, 328.52120720421306 936.3733263453548, 324.2666420689529 944.3514970398577 M329.9587096523892 930.4134494927303 C328.307071546071 934.6277769099563, 326.6745384898005 939.375465670082, 325.15408019006384 944.407981664076 M324.6876657947898 944.1155802980065 C328.39224797189235 943.5660500325263, 330.88125245124104 943.4720810212195, 334.8717418655753 943.6515931859612 M324.8262527830899 943.8480925314128 C327.96571638807654 944.0850504392386, 331.0572681583464 943.9208033317327, 334.90287662819026 944.1577193729579 M335.8496383815417 944.3838552974545 C333.0821884133462 939.827218070064, 332.89521008702997 937.2970329998362, 329.4605789537146 929.8234070604459 M334.76360079385256 943.6709691236218 C333.57876036539807 941.114126290982, 332.9136858124077 937.7606306766712, 329.77067974087345 929.7565609564855" stroke="#1e1e1e" stroke-width="2" fill="none"/></g><rect x="226" y="943" width="208" height="22" rx="11" fill="#ffffff" stroke="#1e1e1e" stroke-width="1" opacity="0.95"/><text x="330" y="960" fill="#475569" text-anchor="middle" font-size="13" class="hand">*/skills  +  action goals</text><g><path d="M899.7911431029439 928.268722204864 C902.5199965327978 939.1240494508296, 899.4210121482611 950.256969165057, 898.9576176837087 981.5632103011012 M900.4028261683882 930.0219742633402 C899.731336658746 949.1754270140082, 901.0108249600232 968.3478105813265, 899.4880928300321 980.1289984799921" stroke="#1e1e1e" stroke-width="2" fill="none"/></g><g><path d="M899.6668498110026 980.9072269070894 L894.9500321101398 965.9999885547907 L904.4475282978267 966.438464390114" stroke="none" stroke-width="0" fill="#1e1e1e" fill-rule="evenodd"/><path d="M899.4127379708608 980.6784070606847 C898.74089649851 976.3614148077471, 898.2450441845499 974.3403171212074, 895.1506319638282 965.8639802667626 M900.3063998945335 979.6801909436498 C897.7222643477496 974.6346875035629, 896.074311129797 969.0912516203075, 894.9968943616218 965.9377028202013 M895.1574502820149 965.4825631415472 C896.8517851028591 966.167688794341, 899.4142956210301 965.7289986862801, 905.3113304549828 965.4323924755678 M894.9841710734181 965.7218849656172 C897.1378221937455 966.1875908193738, 898.8105699746869 965.7819186595827, 904.7524509328417 966.1589792040177 M904.9764045635428 965.1709100706341 C903.0100877641884 971.0425458986832, 901.413580177693 975.7080113420687, 899.2843178705383 980.8624120206222 M904.751843983757 966.3391365214167 C903.9060023272461 970.0463606181395, 902.2296802713498 973.9970808251296, 900.1812420776347 980.3521930849494" stroke="#1e1e1e" stroke-width="2" fill="none"/></g><g><path d="M899.6668498110026 930.9072269070894 L894.9500321101398 943.9999885547907 L904.4475282978267 944.438464390114" stroke="none" stroke-width="0" fill="#1e1e1e" fill-rule="evenodd"/><path d="M899.4127379708608 930.6784070606847 C898.8501233407569 932.0781022691084, 898.3542710267968 935.7736920439299, 895.1506319638282 943.8639802667626 M900.3063998945335 929.6801909436498 C897.7859972243261 935.6443923411384, 896.1380440063735 941.1106612954586, 894.9968943616218 943.9377028202013 M895.1574502820149 943.4825631415472 C896.8517851028591 944.167688794341, 899.4142956210301 943.7289986862801, 905.3113304549828 943.4323924755678 M894.9841710734181 943.7218849656172 C897.1378221937455 944.1875908193738, 898.8105699746869 943.7819186595827, 904.7524509328417 944.1589792040177 M904.9764045635428 943.1709100706341 C902.9988008371216 939.8477459542972, 901.4022932506263 935.318411453297, 899.2843178705383 930.8624120206222 M904.751843983757 944.3391365214167 C903.8672378225378 940.4593571155172, 902.1909157666415 936.8230738198852, 900.1812420776347 930.3521930849494" stroke="#1e1e1e" stroke-width="2" fill="none"/></g><rect x="796" y="943" width="208" height="22" rx="11" fill="#ffffff" stroke="#1e1e1e" stroke-width="1" opacity="0.95"/><text x="900" y="960" fill="#475569" text-anchor="middle" font-size="13" class="hand">*/skills  +  action goals</text><g><path d="M1470.4347471602262 930.0801712743938 C1471.6233669528365 938.479234774597, 1470.8615364083648 951.8997574727982, 1470.0808717377483 981.359652852267 M1470.1168408390135 930.0241400185972 C1468.4014241666346 948.761550922133, 1470.5695397944003 966.993585009873, 1469.3547936793416 980.0456955019384" stroke="#1e1e1e" stroke-width="2" fill="none"/></g><g><path d="M1468.9287124916912 980.6806864216924 L1464.0142615124582 965.8174678757787 L1474.3918317124248 965.9085904553533" stroke="none" stroke-width="0" fill="#1e1e1e" fill-rule="evenodd"/><path d="M1469.6519345249012 979.5677069710039 C1468.448090772932 977.9491309791053, 1468.8273867798346 975.036921679719, 1465.5680912635298 965.7883277910527 M1470.2001129553532 979.6809958503133 C1468.3362489628234 974.8986150378161, 1466.1935941337613 969.4423205131595, 1464.9473535031686 965.9067431252362 M1464.803169772774 966.4081015728414 C1468.5856907501816 966.1288350304217, 1471.845406704396 965.5327110727876, 1474.5165115095674 966.327078332752 M1465.0969070147723 966.1985100734979 C1468.276758268848 966.0386059990525, 1470.9635625716298 966.1602807632089, 1474.932102258131 965.7081022370606 M1474.81350124306 965.2204516306188 C1473.687275387009 970.8110874358673, 1470.9042867703986 976.9927392309894, 1470.8858973336646 980.6061202880132 M1475.4373766111169 965.8155602799387 C1473.220652010016 970.2712822292816, 1471.8607441119914 973.9064331504924, 1470.0767181631027 979.8274047964235" stroke="#1e1e1e" stroke-width="2" fill="none"/></g><g><path d="M1468.9287124916912 930.6806864216924 L1464.0142615124582 943.8174678757787 L1474.3918317124248 943.9085904553533" stroke="none" stroke-width="0" fill="#1e1e1e" fill-rule="evenodd"/><path d="M1469.6519345249012 929.5677069710039 C1468.3071849171272 933.6291883959616, 1468.6864809240299 936.3970365134314, 1465.5680912635298 943.7883277910527 M1470.2001129553532 929.6809958503133 C1468.304402263258 935.5331050881915, 1466.1617474341958 940.7113006139105, 1464.9473535031686 943.9067431252362 M1464.803169772774 944.4081015728414 C1468.5856907501816 944.1288350304217, 1471.845406704396 943.5327110727876, 1474.5165115095674 944.327078332752 M1465.0969070147723 944.1985100734979 C1468.276758268848 944.0386059990525, 1470.9635625716298 944.1602807632089, 1474.932102258131 943.7081022370606 M1474.81350124306 943.2204516306188 C1473.8420947121283 938.5156259853501, 1471.0591060955178 934.401816329955, 1470.8858973336646 930.6061202880132 M1475.4373766111169 943.8155602799387 C1473.1837262009606 940.420004745282, 1471.823818302936 936.2038781824929, 1470.0767181631027 929.8274047964235" stroke="#1e1e1e" stroke-width="2" fill="none"/></g><rect x="1366" y="943" width="208" height="22" rx="11" fill="#ffffff" stroke="#1e1e1e" stroke-width="1" opacity="0.95"/><text x="1470" y="960" fill="#475569" text-anchor="middle" font-size="13" class="hand">*/skills  +  action goals</text><text x="910" y="61.9" fill="#1e1e1e" text-anchor="middle" font-size="34" font-weight="bold" class="hand">Robot Skills Framework — Runtime Architecture</text><text x="910" y="96.6" fill="#5c5c5c" text-anchor="middle" font-size="16" font-weight="normal" class="hand">Discovery, not registration   ·   ROS action is the only skill API   ·   One process per provider host</text><text x="300" y="160.7" fill="#1e1e1e" text-anchor="middle" font-size="22" font-weight="bold" class="hand">Browser  (human operator)</text><text x="300" y="188.55" fill="#5c5c5c" text-anchor="middle" font-size="13" font-weight="normal" class="hand">SPA :8081  ·  rosbridge ws://9090</text><text x="90" y="220.25" fill="#1e1e1e" text-anchor="start" font-size="15" font-weight="bold" class="hand">★ Primary  ─  BT executor</text><text x="90" y="239" fill="#1e1e1e" text-anchor="start" font-size="13" font-weight="normal" class="hand">Real / Sim / Sim→Real toggle</text><text x="90" y="255.9" fill="#1e1e1e" text-anchor="start" font-size="13" font-weight="normal" class="hand">+ dry-run approval modal</text><text x="90" y="299.9" fill="#1e1e1e" text-anchor="start" font-size="14" font-weight="bold" class="hand">Inspection / monitoring</text><text x="90" y="316" fill="#1e293b" text-anchor="start" font-size="12" font-weight="normal" class="hand">Task monitor · Skill browser · BT tree viewer</text><text x="90" y="331.6" fill="#1e293b" text-anchor="start" font-size="12" font-weight="normal" class="hand">Logs · Plots · Diagnostics · Service caller</text><text x="1170" y="165.7" fill="#1e1e1e" text-anchor="middle" font-size="22" font-weight="bold" class="hand">Agent Host  (LLM laptop / sandbox VM)</text><text x="890" y="225.95" fill="#1e1e1e" text-anchor="middle" font-size="17" font-weight="bold" class="hand">bt_executor_mcp   (agent/robot_skill_mcp)</text><text x="625" y="254" fill="#1e1e1e" text-anchor="start" font-size="14" font-weight="normal" class="hand">FastMCP stdio + mcp_ros_bridge</text><text x="625" y="272.2" fill="#1e1e1e" text-anchor="start" font-size="14" font-weight="normal" class="hand">rclpy node — joins lab DDS</text><text x="625" y="290.4" fill="#1e1e1e" text-anchor="start" font-size="14" font-weight="normal" class="hand"/><text x="625" y="308.6" fill="#1e1e1e" text-anchor="start" font-size="14" font-weight="normal" class="hand">tools:  list_skills · list_trees · compose_task · execute_tree</text><text x="625" y="326.8" fill="#1e1e1e" text-anchor="start" font-size="14" font-weight="normal" class="hand">        ★ register_script · get_dryrun_status · approve_dry_run</text><text x="1467.5" y="225.95" fill="#1e1e1e" text-anchor="middle" font-size="17" font-weight="bold" class="hand">script_action_server   (agent/robot_script_server)</text><text x="1205" y="254" fill="#1e1e1e" text-anchor="start" font-size="14" font-weight="normal" class="hand">Per-MCP-session lifetime</text><text x="1205" y="272.2" fill="#1e1e1e" text-anchor="start" font-size="14" font-weight="normal" class="hand">advertises /script_action_server_&lt;id&gt;/skills</text><text x="1205" y="290.4" fill="#1e1e1e" text-anchor="start" font-size="14" font-weight="normal" class="hand">hosts /scripts_&lt;id&gt;/&lt;name&gt;  (RunScript)</text><text x="1205" y="308.6" fill="#1e1e1e" text-anchor="start" font-size="14" font-weight="normal" class="hand"/><text x="1205" y="326.8" fill="#1e1e1e" text-anchor="start" font-size="14" font-weight="normal" class="hand">kind ∈ {bt_xml, action_sequence, python_callable}</text><text x="1205" y="345" fill="#1e1e1e" text-anchor="start" font-size="14" font-weight="normal" class="hand">python_callable gated behind --allow-python-scripts</text><text x="84" y="505.1" fill="#1e1e1e" text-anchor="start" font-size="26" font-weight="bold" class="hand">Orchestrator PC</text><text x="280" y="550.95" fill="#1e1e1e" text-anchor="middle" font-size="17" font-weight="bold" class="hand">rosbridge_suite + dashboard SPA</text><text x="280" y="585.8" fill="#1e1e1e" text-anchor="middle" font-size="14" font-weight="normal" class="hand">:8081 static  +  :9090 WebSocket</text><text x="280" y="604" fill="#1e1e1e" text-anchor="middle" font-size="14" font-weight="normal" class="hand">pure transport — no business logic</text><text x="104" y="661.3" fill="#1e1e1e" text-anchor="start" font-size="18" font-weight="bold" class="hand">skill_server_node   (src/robot_skill_server)</text><text x="108" y="686.55" fill="#5c5c5c" text-anchor="start" font-size="13" font-weight="bold" class="hand">Main execution path</text><text x="298.5" y="717.25" fill="#1e1e1e" text-anchor="middle" font-size="15" font-weight="bold" class="hand">BtExecutor</text><text x="298.5" y="740" fill="#1e293b" text-anchor="middle" font-size="11" font-weight="normal" class="hand">/skill_server/execute_behavior_tree</text><text x="298.5" y="754.3" fill="#1e293b" text-anchor="middle" font-size="11" font-weight="normal" class="hand">target_mode ∈ {REAL, SIM, SIM_THEN_REAL}</text><text x="298.5" y="768.6" fill="#1e293b" text-anchor="middle" font-size="11" font-weight="normal" class="hand">★ park · DryRunStatus · ApproveDryRun</text><text x="705.5" y="717.25" fill="#1e1e1e" text-anchor="middle" font-size="15" font-weight="bold" class="hand">TreeExecutor</text><text x="705.5" y="740" fill="#1e293b" text-anchor="middle" font-size="11" font-weight="normal" class="hand">async BT runtime — pure Python</text><text x="705.5" y="754.3" fill="#1e293b" text-anchor="middle" font-size="11" font-weight="normal" class="hand">ticks Sequence/Fallback/Parallel/…</text><text x="705.5" y="768.6" fill="#1e293b" text-anchor="middle" font-size="11" font-weight="normal" class="hand">maps each XML tag → ROS action goal</text><text x="1112.5" y="717.25" fill="#1e1e1e" text-anchor="middle" font-size="15" font-weight="bold" class="hand">SkillRegistry</text><text x="1112.5" y="740" fill="#1e293b" text-anchor="middle" font-size="11" font-weight="normal" class="hand">live (robot_id, bt_tag) → action entry</text><text x="1112.5" y="754.3" fill="#1e293b" text-anchor="middle" font-size="11" font-weight="normal" class="hand">filters /sim/* manifests</text><text x="1112.5" y="768.6" fill="#1e293b" text-anchor="middle" font-size="11" font-weight="normal" class="hand">publishes /skill_server/skill_registry</text><text x="1519.5" y="717.25" fill="#1e1e1e" text-anchor="middle" font-size="15" font-weight="bold" class="hand">SkillDiscovery</text><text x="1519.5" y="740" fill="#1e293b" text-anchor="middle" font-size="11" font-weight="normal" class="hand">scans every */skills latched topic</text><text x="1519.5" y="754.3" fill="#1e293b" text-anchor="middle" font-size="11" font-weight="normal" class="hand">TRANSIENT_LOCAL · LIVELINESS_AUTOMATIC</text><text x="1519.5" y="768.6" fill="#1e293b" text-anchor="middle" font-size="11" font-weight="normal" class="hand">late-join + restart handled by DDS</text><text x="298.5" y="820.85" fill="#b45309" text-anchor="middle" font-size="11" font-weight="normal" class="hand">↑ public action API</text><text x="1519.5" y="820.85" fill="#b45309" text-anchor="middle" font-size="11" font-weight="normal" class="hand">↓ subscribes to lab DDS</text><text x="108" y="846.55" fill="#5c5c5c" text-anchor="start" font-size="13" font-weight="bold" class="hand">Side services  (independent service surfaces)</text><text x="132" y="875.55" fill="#1e1e1e" text-anchor="start" font-size="13" font-weight="bold" class="hand">TaskComposer</text><text x="295" y="874.85" fill="#1e293b" text-anchor="start" font-size="11" font-weight="normal" class="hand">/skill_server/compose_task  ─  generates BT XML from TaskStep[]</text><text x="947" y="875.55" fill="#1e1e1e" text-anchor="start" font-size="13" font-weight="bold" class="hand">LeaseBroker</text><text x="1110" y="874.85" fill="#1e293b" text-anchor="start" font-size="11" font-weight="normal" class="hand">/acquire_lease · /renew_lease · /release_lease  ─  exclusive resource leases</text><text x="100" y="921.2" fill="#5c5c5c" text-anchor="start" font-size="12" font-weight="normal" class="hand">publishes:  /skill_registry · /available_trees · /active_bt_xml · /task_state · /log_events · /lease_events  ★ /dryrun_status     services:  ★ /approve_dry_run</text><text x="330" y="1011.7" fill="#1e1e1e" text-anchor="middle" font-size="22" font-weight="bold" class="hand">Meca500 PC</text><text x="330" y="1039.9" fill="#5c5c5c" text-anchor="middle" font-size="14" font-weight="normal" class="hand">meca500_skill_server   (single proxy hosts all 12 atoms)</text><text x="330" y="1078.6" fill="#1e1e1e" text-anchor="middle" font-size="16" font-weight="bold" class="hand">MoveGroupInterface  (MoveIt2)</text><text x="110" y="1109" fill="#1e1e1e" text-anchor="start" font-size="13" font-weight="normal" class="mono">├─ MoveToNamed / MoveToJoint / MoveCartesian</text><text x="110" y="1125.9" fill="#1e1e1e" text-anchor="start" font-size="13" font-weight="normal" class="mono">├─ Gripper · SetDIO · RobotEnable</text><text x="110" y="1142.8" fill="#1e1e1e" text-anchor="start" font-size="13" font-weight="normal" class="mono">├─ CheckSystemReady · CheckCollision</text><text x="110" y="1159.7" fill="#1e1e1e" text-anchor="start" font-size="13" font-weight="normal" class="mono">└─ UpdateSceneObject</text><text x="110" y="1176.6" fill="#1e1e1e" text-anchor="start" font-size="13" font-weight="normal" class="mono"/><text x="110" y="1193.5" fill="#1e1e1e" text-anchor="start" font-size="13" font-weight="normal" class="mono">+ MoveIt2 stack:</text><text x="110" y="1210.4" fill="#1e1e1e" text-anchor="start" font-size="13" font-weight="normal" class="mono">    move_group · ros2_control · joint_traj_ctrl</text><text x="84" y="1298" fill="#5c5c5c" text-anchor="start" font-size="13" font-weight="normal" class="hand">publishes:</text><text x="84" y="1314.9" fill="#5c5c5c" text-anchor="start" font-size="13" font-weight="normal" class="hand">  /meca500_skill_server/skills  (latched)</text><text x="84" y="1331.8" fill="#5c5c5c" text-anchor="start" font-size="13" font-weight="normal" class="hand">  + paired sim under /sim/...</text><text x="900" y="1011.7" fill="#1e1e1e" text-anchor="middle" font-size="22" font-weight="bold" class="hand">Liconic / Hamilton PC</text><text x="900" y="1039.9" fill="#5c5c5c" text-anchor="middle" font-size="14" font-weight="normal" class="hand">two python action-server proxies (pylabrobot)</text><text x="900" y="1078.6" fill="#1e1e1e" text-anchor="middle" font-size="16" font-weight="bold" class="hand">liconic_action_server</text><text x="680" y="1109" fill="#1e1e1e" text-anchor="start" font-size="13" font-weight="normal" class="mono">pylabrobot Liconic STX44</text><text x="680" y="1125.9" fill="#1e1e1e" text-anchor="start" font-size="13" font-weight="normal" class="mono">  ├─ TakeIn   ├─ Fetch</text><text x="900" y="1183.6" fill="#1e1e1e" text-anchor="middle" font-size="16" font-weight="bold" class="hand">hamilton_star_action_server</text><text x="680" y="1213" fill="#1e1e1e" text-anchor="start" font-size="13" font-weight="normal" class="mono">STAR backend</text><text x="680" y="1229.9" fill="#1e1e1e" text-anchor="start" font-size="13" font-weight="normal" class="mono">  ├─ MoveResource</text><text x="680" y="1246.8" fill="#1e1e1e" text-anchor="start" font-size="13" font-weight="normal" class="mono">  ├─ HandoffTransfer</text><text x="680" y="1263.7" fill="#1e1e1e" text-anchor="start" font-size="13" font-weight="normal" class="mono">  └─ PickUpCoreGripper · ReturnCoreGripper</text><text x="654" y="1298" fill="#5c5c5c" text-anchor="start" font-size="13" font-weight="normal" class="hand">publishes:</text><text x="654" y="1314.9" fill="#5c5c5c" text-anchor="start" font-size="13" font-weight="normal" class="hand">  /liconic_action_server/skills</text><text x="654" y="1331.8" fill="#5c5c5c" text-anchor="start" font-size="13" font-weight="normal" class="hand">  /hamilton_star_action_server/skills</text><text x="654" y="1348.7" fill="#5c5c5c" text-anchor="start" font-size="13" font-weight="normal" class="hand">  + paired /sim/... (filtered by discovery)</text><text x="1470" y="1011.7" fill="#1e1e1e" text-anchor="middle" font-size="22" font-weight="bold" class="hand">Dev Box  (lite-native)</text><text x="1470" y="1039.9" fill="#5c5c5c" text-anchor="middle" font-size="14" font-weight="normal" class="hand">Panda mock skill atoms (fake_hardware)</text><text x="1470" y="1078.6" fill="#1e1e1e" text-anchor="middle" font-size="16" font-weight="bold" class="hand">robot_mock_skill_atoms</text><text x="1250" y="1109" fill="#1e1e1e" text-anchor="start" font-size="13" font-weight="normal" class="mono">Mock backend — no MoveIt2</text><text x="1250" y="1125.9" fill="#1e1e1e" text-anchor="start" font-size="13" font-weight="normal" class="mono">Same SkillBase API as real atoms</text><text x="1250" y="1142.8" fill="#1e1e1e" text-anchor="start" font-size="13" font-weight="normal" class="mono"/><text x="1250" y="1159.7" fill="#1e1e1e" text-anchor="start" font-size="13" font-weight="normal" class="mono">loads:</text><text x="1250" y="1176.6" fill="#1e1e1e" text-anchor="start" font-size="13" font-weight="normal" class="mono">  robot_sim_config</text><text x="1250" y="1193.5" fill="#1e1e1e" text-anchor="start" font-size="13" font-weight="normal" class="mono">    Panda URDF / SRDF</text><text x="1250" y="1210.4" fill="#1e1e1e" text-anchor="start" font-size="13" font-weight="normal" class="mono"/><text x="1250" y="1227.3" fill="#1e1e1e" text-anchor="start" font-size="13" font-weight="normal" class="mono">Used by dashboard dev &amp; lab-sim</text><text x="1224" y="1298" fill="#5c5c5c" text-anchor="start" font-size="13" font-weight="normal" class="hand">publishes:</text><text x="1224" y="1314.9" fill="#5c5c5c" text-anchor="start" font-size="13" font-weight="normal" class="hand">  /&lt;mock_node&gt;/skills  (latched)</text><text x="1224" y="1331.8" fill="#5c5c5c" text-anchor="start" font-size="13" font-weight="normal" class="hand"/><text x="1224" y="1348.7" fill="#5c5c5c" text-anchor="start" font-size="13" font-weight="normal" class="hand">pkg dirs:  providers/panda_sim/src/</text><text x="910" y="1397.9" fill="#b45309" text-anchor="middle" font-size="14" font-weight="normal" class="hand">★  Sim path:  each provider launch accepts namespace_prefix:=/sim → paired /sim/* action surface;  TreeExecutor synthesises sim paths at parse time.</text><text x="80" y="1444.95" fill="#1e1e1e" text-anchor="start" font-size="17" font-weight="bold" class="hand">Reading the diagram</text><text x="80" y="1466" fill="#1e293b" text-anchor="start" font-size="14" font-weight="normal" class="hand">Discovery flows up:  every provider proxy publishes &lt;node&gt;/skills (TRANSIENT_LOCAL · LIVELINESS_AUTOMATIC).  Action calls flow back down:  the orchestrator's TreeExecutor resolves entries from</text><text x="80" y="1484.2" fill="#1e293b" text-anchor="start" font-size="14" font-weight="normal" class="hand">the runtime registry, then dispatches the goal directly to the right host.  Single-box deployments (lab-sim, real-native, lite-native) collapse all hosts onto one PC — DDS graph is identical.</text></svg>